<svg xmlns="http://www.w3.org/2000/svg" xmlns:xlink="http://www.w3.org/1999/xlink" aria-hidden="true" role="img" class="iconify iconify--logos" width="31.88" height="32" preserveAspectRatio="xMidYMid meet" viewBox="0 0 256 257"><defs><linearGradient id="IconifyId1813088fe1fbc01fb466" x1="-.828%" x2="57.636%" y1="7.652%" y2="78.411%"><stop offset="0%" stop-color="#FF00FF"></stop><stop offset="100%" stop-color="#FF8C00"></stop></linearGradient></defs><path fill="url(#IconifyId1813088fe1fbc01fb466)" d="M255.153 37.938L134.897 252.976c-2.483 4.144-8.862 4.144-11.345 0L.513 37.938c-2.483-4.144-.577-8.949 4.382-10.341L121.12 1.457c4.607-1.603 9.776-1.603 14.384 0l116.226 26.14c4.96 1.392 6.866 6.198 4.423 10.341Z"></path><path fill="#FFF" d="M185.432.063F92.083 17.802v42.971l59.631 40.235 59.57-40.235V17.802zm30.51 78.646-17.624 12.158V91.49l.209 84.161 23.86-36.415 23.645-36.422-.089-28.129zm-60.991 5.324v34.67l-23.957-16.008v-19.665zm31.312 0l23.645 15.86v19.798l-23.645-16.008zm-141.08-6.55l17.624 12.254v28.971L0 86.125l-23.645 36.415-.209 84.16 23.86 36.423 23.645-36.415.089-28.13zm60.072 5.431v34.67l23.957-16.008v-19.665zm-31.31 0l-23.645 15.86v19.798l23.645-16.008z"></path></svg>
